<svg width="137" height="202" fill="none" xmlns="http://www.w3.org/2000/svg"><path d="M17.663 22.188v33.43H.816V10.947S11.731 0 30.002 0c16.372 0 29.897 12.425 29.897 34.318V78.99c0 43.193-41.524 50.59-41.524 82.541v22.484H59.9v17.159H1.53v-39.643c0-43.194 41.523-50.59 41.523-82.54V34.317c0-10.65-5.932-16.863-13.05-16.863-7.593 0-12.339 4.733-12.339 4.733zm76.236 0v33.43H77.052V10.947S87.967 0 106.238 0c16.372 0 29.897 12.425 29.897 34.318V78.99c0 43.193-41.524 50.59-41.524 82.541v22.484h41.524v17.159H77.764v-39.643c0-43.194 41.524-50.59 41.524-82.54V34.317c0-10.65-5.932-16.863-13.05-16.863-7.593 0-12.339 4.733-12.339 4.733z" fill="#FBDDA6"/></svg>