<svg width="141" height="176" fill="none" xmlns="http://www.w3.org/2000/svg"><path d="M17.399 19.26v29.02H0V9.502S11.272 0 30.142 0C47.05 0 61.017 10.786 61.017 29.79v38.778c0 37.494-42.884 43.914-42.884 71.65v19.517h42.884v14.895H.735v-34.412c0-37.494 42.885-43.915 42.885-71.65V29.79c0-9.245-6.127-14.638-13.478-14.638-7.842 0-12.743 4.109-12.743 4.109zM109.855 0c16.908 0 30.876 10.786 30.876 29.79v116.59c0 19.004-13.968 29.533-30.876 29.533-16.909 0-30.632-10.529-30.632-29.533V29.79C79.223 10.786 92.946 0 109.855 0zM96.622 29.79v116.59c0 9.245 5.881 14.381 13.233 14.381 7.351 0 13.478-5.136 13.478-14.381V29.79c0-9.245-6.127-14.638-13.478-14.638-7.352 0-13.233 5.393-13.233 14.638z" fill="#FBDDA6"/></svg>