<svg xmlns="http://www.w3.org/2000/svg" width="3021" height="2055" fill="none"><path fill="url(#pattern0)" d="M.5.36h3020v2054H.5z"/><path d="M1852.51 744.945h139.462v83.815H1852.51zm849.7 0h279.565v224.131H2702.21zm0 463.545h279.565v239.983H2702.21zm0 287.12h279.565v211.271H2702.21zm0 258.41h279.565v226.551H2702.21zm-427.74-168.09h279.565v226.551H2274.47zm-466.15 15.32h279.565v237.171H1808.32zm0-291.99h279.565v223.084H1808.32zm-815.957 163.37h217.099v217.099H992.363zm69.317-1238.608h217.099v244.364H1061.68zm1640.53-21.674h279.565v224.131H2702.21zm-696.84 473.515h139.806V828.76H2005.37zm-115.76-291.291h204.728v83.815H1889.61zm341.7-267.933h212.765v125.208H2231.31z"/></svg>