<svg width="147" height="27" fill="none" xmlns="http://www.w3.org/2000/svg"><g clip-path="url(#clip0_116_778)"><path d="M139.113 24.14h-3.979V8.047h6.626c1.554 0 2.858.576 3.778 1.56.926.993 1.46 2.395 1.46 4.034 0 1.643-.535 3.057-1.465 4.06-.92.993-2.222 1.579-3.773 1.579h-2.465v4.86h-.182zm.182-12.426v3.899h1.684c.584 0 1.023-.19 1.316-.51.318-.348.477-.86.477-1.462 0-.598-.155-1.094-.459-1.43-.286-.316-.71-.497-1.269-.497h-1.749zM122.449 24.14h-4.159c1.796-5.365 3.591-10.731 5.397-16.093h4.251l5.396 16.093h-4.294l-.955-3.3h-4.567l-.932 3.3h-.137zm2.886-9.568l-.821 2.822h2.576l-.802-2.823a36.784 36.784 0 01-.476-1.98 35.678 35.678 0 01-.477 1.981zm-24.885 5.923h1.683c1.459-2.624 1.897-5.573 1.897-8.547V8.047h10.866v12.448h1.736v5.64h-3.726V24.14h-8.599v1.994h-3.857v-5.64zm5.969 0h4.316v-8.781h-2.739v.542c0 2.621-.418 5.867-1.577 8.239zM94.88 24.14h-3.979V8.047h9.868v3.667h-5.707V24.14h-.181zm-16.708 0H74.17V8.047h4.16v7.53l-.043 1.639.879-1.733 4.348-7.436h4.126V24.14h-4.16v-7.508l.042-1.64-.878 1.734-4.371 7.414h-.102zm-21.708-3.739l.159-.021c2.987-.392 2.944-4.707 2.944-6.98V8.046H70.91V24.14h-4.16V11.714h-3.218v1.729c0 4.896-.864 10.697-6.887 10.697h-.181V20.4zm-2.38 3.739H43.312V8.047h10.953v3.667h-6.792v2.546h4.824v3.65h-4.824v2.563h6.792v3.667h-.181zm-14.605-5.164a6.776 6.776 0 01-1.588 1.052c-.65.305-1.347.49-2.048.49-1.323 0-2.317-.486-3.003-1.226-.81-.872-1.198-2.104-1.198-3.318 0-1.18.358-2.347 1.156-3.164.676-.692 1.675-1.139 3.045-1.139.635 0 1.295.159 1.917.415.65.27 1.258.645 1.75 1.06l1.687-3.469a7.683 7.683 0 00-2.222-1.293c-3.086-1.18-6.858-.642-9.254 1.74-1.497 1.488-2.37 3.576-2.37 5.938 0 2.422.834 4.538 2.326 6.035 2.4 2.407 6.414 2.92 9.478 1.626a8.493 8.493 0 002.037-1.224l-1.713-3.523z" fill="#5F5C5C"/><path d="M2.393 18.47L.072 23.175a.656.656 0 00.028.647.64.64 0 00.558.315h21.695a.637.637 0 00.558-.315.654.654 0 00.03-.647l-2.322-4.706a.641.641 0 00-.587-.367H2.98a.641.641 0 00-.587.367z" fill="#DEB675"/><path d="M11.508 0l-7.94 16.093 11.908-8.047.188.38-12.096 7.667 13.893-4.024L11.508 0zm-7.94 16.093h15.878l-1.8-3.65-14.078 3.65z" fill="#5F5C5C"/></g><defs><clipPath id="clip0_116_778"><path fill="#fff" d="M0 0h147v26.133H0z"/></clipPath></defs></svg>