<svg width="33" height="33" fill="none" xmlns="http://www.w3.org/2000/svg"><path fill="#000" d="M0 0h33v33H0z"/><path d="M6.176 11.992h3.32c.85 0 1.557.283 2.123.85.575.566.862 1.269.862 2.11 0 .832-.287 1.535-.862 2.11-.566.566-1.274.85-2.123.85h-1.84V21h-1.48v-9.008zm1.48 4.53h1.84c.437 0 .798-.146 1.08-.438.284-.3.425-.678.425-1.132 0-.455-.141-.828-.424-1.12-.283-.3-.644-.45-1.081-.45h-1.84v3.14zm6.11-4.53h3.54c1.235 0 2.26.433 3.075 1.3.823.866 1.235 1.934 1.235 3.204 0 1.261-.412 2.33-1.235 3.204-.815.867-1.84 1.3-3.076 1.3h-3.539v-9.008zm1.48 7.592h2.06c.848 0 1.54-.291 2.071-.875.54-.583.81-1.32.81-2.213 0-.892-.27-1.63-.81-2.213-.532-.584-1.223-.875-2.072-.875h-2.059v6.176zm12.995-7.592v1.415h-3.796v2.523h3.668v1.415h-3.668V21h-1.48v-9.008h5.276z" fill="#fff"/></svg>