<svg xmlns="http://www.w3.org/2000/svg" xmlns:xlink="http://www.w3.org/1999/xlink" width="3021" height="2055" viewBox="0 0 3021 2055" fill="none">
<rect x="0.5" y="0.360107" width="3020" height="2054" fill="url(#pattern0)"/>
<rect x="1852.51" y="744.945" width="139.462" height="83.8147" fill="none"/>
<rect x="2702.21" y="744.945" width="279.565" height="224.131" fill="none"/>
<rect x="2702.21" y="1208.49" width="279.565" height="239.983" fill="none"/>
<rect x="2702.21" y="1495.61" width="279.565" height="211.271" fill="none"/>
<rect x="2702.21" y="1754.02" width="279.565" height="226.551" fill="none"/>
<rect x="2274.47" y="1585.93" width="279.565" height="226.551" fill="none"/>
<rect x="1808.32" y="1601.25" width="279.565" height="237.171" fill="none"/>
<rect x="1808.32" y="1309.26" width="279.565" height="223.084" fill="none"/>
<rect x="992.363" y="1472.63" width="217.099" height="217.099" fill="none"/>
<rect x="1061.68" y="234.022" width="217.099" height="244.364" fill="none"/>
<rect x="2702.21" y="212.348" width="279.565" height="224.131" fill="none"/>
<rect x="2005.37" y="685.863" width="139.806" height="142.897" fill="none"/>
<rect x="1889.61" y="394.572" width="204.728" height="83.8147" fill="none"/>
<rect x="2231.31" y="126.639" width="212.765" height="125.208" fill="none"/>
</svg>