<svg width="147" height="27" viewBox="0 0 147 27" fill="none" xmlns="http://www.w3.org/2000/svg">
<g clip-path="url(#clip0_116_778)">
<path d="M139.113 24.1397H135.134V8.04688H141.76C143.314 8.04688 144.618 8.62324 145.538 9.60788C146.464 10.5995 146.998 12.0019 146.998 13.641C146.998 15.2835 146.463 16.6982 145.533 17.7012C144.613 18.6937 143.311 19.2798 141.76 19.2798H139.295V24.1397H139.113ZM139.295 11.7138V15.6128H140.979C141.563 15.6128 142.002 15.4236 142.295 15.1039C142.613 14.7552 142.772 14.2436 142.772 13.641C142.772 13.0435 142.617 12.5468 142.313 12.2105C142.027 11.8951 141.603 11.7138 141.044 11.7138H139.295Z" fill="#5F5C5C"/>
<path d="M122.449 24.1397H118.29C120.086 18.7751 121.881 13.4088 123.687 8.04688H127.938L133.334 24.1397H129.04L128.085 20.8408H123.518L122.586 24.1397H122.449ZM125.335 14.5721L124.514 17.3937H127.09L126.288 14.5713C126.124 13.9922 125.939 13.1767 125.812 12.5906C125.685 13.1776 125.5 13.9931 125.335 14.5721Z" fill="#5F5C5C"/>
<path d="M100.45 20.4948H102.133C103.592 17.8712 104.03 14.9217 104.03 11.9477V8.04688H114.896V20.4948H116.632V26.1344H112.906V24.1398H104.307V26.1344H100.45V20.4948ZM106.419 20.4948H110.735V11.7138H107.996V12.256C107.996 14.877 107.578 18.1235 106.419 20.4948Z" fill="#5F5C5C"/>
<path d="M94.8806 24.1397H90.9014V8.04688H100.769V11.7138H95.0621V24.1397H94.8806Z" fill="#5F5C5C"/>
<path d="M78.1718 24.1397H74.1709V8.04688H78.3316V15.5769L78.2876 17.2159L79.1666 15.4832L83.5149 8.04688H87.6411V24.1397H83.4803V16.6325L83.5226 14.9926L82.6454 16.7262L78.2737 24.1397H78.1718Z" fill="#5F5C5C"/>
<path d="M56.4639 20.401L56.6229 20.38C59.6099 19.9884 59.5667 15.6733 59.5667 13.3992V8.04688H70.9098V24.1398H66.7499V11.7138H63.5321V13.443C63.5321 18.339 62.6678 24.1398 56.6454 24.1398H56.4639V20.401Z" fill="#5F5C5C"/>
<path d="M54.0835 24.1397H43.3125V8.04688H54.265V11.7138H47.4733V14.2603H52.2969V17.9105H47.4733V20.4729H54.265V24.1397H54.0835Z" fill="#5F5C5C"/>
<path d="M39.4786 18.976C39.0076 19.3913 38.4682 19.7575 37.8909 20.0281C37.2418 20.333 36.5443 20.5178 35.8433 20.5178C34.5201 20.5178 33.5261 20.0325 32.8399 19.2923C32.03 18.4198 31.642 17.1881 31.642 15.974C31.642 14.7931 31.9998 13.6272 32.7984 12.8099C33.4743 12.1179 34.4726 11.6711 35.8433 11.6711C36.4777 11.6711 37.1381 11.8297 37.7604 12.0864C38.4103 12.3553 39.0179 12.731 39.5106 13.1463L41.1968 9.67737C40.5374 9.12025 39.7794 8.69096 38.9747 8.38353C35.8891 7.20444 32.1165 7.74231 29.7215 10.1232C28.2245 11.6124 27.3516 13.6999 27.3516 16.0616C27.3516 18.4837 28.1847 20.6001 29.6774 22.0972C32.0776 24.5036 36.0914 25.0169 39.1554 23.7231C39.9272 23.3972 40.6039 22.9741 41.1916 22.4993L39.4786 18.976Z" fill="#5F5C5C"/>
<path d="M2.39312 18.4695L0.0716059 23.1753C-0.0329766 23.3864 -0.0226041 23.6203 0.100125 23.8218C0.223719 24.0233 0.424239 24.1371 0.658462 24.1371H22.3533C22.5876 24.1371 22.7881 24.0233 22.9108 23.8218C23.0344 23.6203 23.0448 23.3864 22.9402 23.1753L20.6187 18.4695C20.5046 18.2382 20.2868 18.1016 20.0318 18.1016H2.97998C2.72502 18.1016 2.50721 18.2382 2.39312 18.4695Z" fill="#DEB675"/>
<path d="M11.5078 0L3.56836 16.0929L15.4759 8.04601L15.6643 8.42615L3.56836 16.0929L17.4612 12.0686L11.5078 0ZM3.56836 16.0929H19.4456L17.6453 12.4426L3.56836 16.0929Z" fill="#5F5C5C"/>
</g>
<defs>
<clipPath id="clip0_116_778">
<rect width="147" height="26.1333" fill="white"/>
</clipPath>
</defs>
</svg>
