<svg width="33" height="33" viewBox="0 0 33 33" fill="none" xmlns="http://www.w3.org/2000/svg">
<rect width="33" height="33" fill="black"/>
<path d="M6.17578 11.992H9.49589C10.3452 11.992 11.053 12.2751 11.6192 12.8413C12.194 13.4075 12.4814 14.111 12.4814 14.9517C12.4814 15.7839 12.194 16.4874 11.6192 17.0622C11.053 17.6284 10.3452 17.9115 9.49589 17.9115H7.65567V21H6.17578V11.992ZM7.65567 16.5217H9.49589C9.93342 16.5217 10.2937 16.3759 10.5768 16.0842C10.86 15.7839 11.0015 15.4064 11.0015 14.9517C11.0015 14.4971 10.86 14.1239 10.5768 13.8322C10.2937 13.5319 9.93342 13.3818 9.49589 13.3818H7.65567V16.5217ZM13.7663 11.992H17.3051C18.5405 11.992 19.5657 12.4252 20.3807 13.2917C21.2043 14.1582 21.6161 15.2263 21.6161 16.496C21.6161 17.7571 21.2043 18.8252 20.3807 19.7003C19.5657 20.5668 18.5405 21 17.3051 21H13.7663V11.992ZM15.2461 19.5845H17.3051C18.1545 19.5845 18.8451 19.2928 19.377 18.7094C19.9175 18.126 20.1877 17.3882 20.1877 16.496C20.1877 15.6038 19.9175 14.866 19.377 14.2826C18.8451 13.6992 18.1545 13.4075 17.3051 13.4075H15.2461V19.5845ZM28.2414 11.992V13.4075H24.4452V15.9298H28.1128V17.3453H24.4452V21H22.9653V11.992H28.2414Z" fill="white"/>
</svg>
