<svg width="137" height="202" viewBox="0 0 137 202" fill="none" xmlns="http://www.w3.org/2000/svg">
<path d="M17.6633 22.1883V55.6186H0.816406V10.9462C0.816406 10.9462 11.7313 0 30.0019 0C46.3743 0 59.8993 12.4254 59.8993 34.3179V78.9902C59.8993 122.183 18.3752 129.58 18.3752 161.531V184.015H59.8993V201.174H1.52825V161.531C1.52825 118.337 43.0524 110.941 43.0524 78.9902V34.3179C43.0524 23.6675 37.1204 17.4548 30.0019 17.4548C22.409 17.4548 17.6633 22.1883 17.6633 22.1883Z" fill="#FBDDA6"/>
<path d="M93.899 22.1883V55.6186H77.0521V10.9462C77.0521 10.9462 87.967 0 106.238 0C122.61 0 136.135 12.4254 136.135 34.3179V78.9902C136.135 122.183 94.6109 129.58 94.6109 161.531V184.015H136.135V201.174H77.764V161.531C77.764 118.337 119.288 110.941 119.288 78.9902V34.3179C119.288 23.6675 113.356 17.4548 106.238 17.4548C98.6447 17.4548 93.899 22.1883 93.899 22.1883Z" fill="#FBDDA6"/>
</svg>
