<svg width="141" height="176" viewBox="0 0 141 176" fill="none" xmlns="http://www.w3.org/2000/svg">
<path d="M17.3988 19.2607V48.2801H0V9.50194C0 9.50194 11.2724 0 30.1415 0C47.0502 0 61.0182 10.786 61.0182 29.7898V68.568C61.0182 106.062 18.1339 112.482 18.1339 140.218V159.735H61.0182V174.63H0.735159V140.218C0.735159 102.724 43.6195 96.3034 43.6195 68.568V29.7898C43.6195 20.5447 37.4931 15.1517 30.1415 15.1517C22.2998 15.1517 17.3988 19.2607 17.3988 19.2607Z" fill="#FBDDA6"/>
<path d="M109.855 0C126.763 0 140.731 10.786 140.731 29.7898V146.381C140.731 165.385 126.763 175.914 109.855 175.914C92.946 175.914 79.223 165.385 79.223 146.381V29.7898C79.223 10.786 92.946 0 109.855 0ZM96.6218 29.7898V146.381C96.6218 155.626 102.503 160.762 109.855 160.762C117.206 160.762 123.333 155.626 123.333 146.381V29.7898C123.333 20.5447 117.206 15.1517 109.855 15.1517C102.503 15.1517 96.6218 20.5447 96.6218 29.7898Z" fill="#FBDDA6"/>
</svg>
